<svg version="1.1" viewBox="0 0 96 96" xmlns="http://www.w3.org/2000/svg" xmlns:xlink="http://www.w3.org/1999/xlink" id="Icons" overflow="hidden"><path d=" M 48 16 C 30.3 16 16 30.3 16 48 C 16 65.7 30.3 80 48 80 C 65.7 80 80 65.7 80 48 C 80 30.3 65.7 16 48 16 Z M 48 86 C 27 86 10 69 10 48 C 10 27 27 10 48 10 C 69 10 86 27 86 48 C 86 69 69 86 48 86 Z" stroke="none" stroke-width="1" stroke-linecap="butt" stroke-dasharray="" stroke-dashoffset="1" fill="#76C4D5" fill-opacity="1"/><path d=" M 68 40 L 56 40 L 56 28 C 56 25.8 54.2 24 52 24 L 44 24 C 41.8 24 40 25.8 40 28 L 40 40 L 28 40 C 25.8 40 24 41.8 24 44 L 24 52 C 24 54.2 25.8 56 28 56 L 40 56 L 40 68 C 40 70.2 41.8 72 44 72 L 52 72 C 54.2 72 56 70.2 56 68 L 56 56 L 68 56 C 70.2 56 72 54.2 72 52 L 72 44 C 72 41.8 70.2 40 68 40 Z" stroke="none" stroke-width="1" stroke-linecap="butt" stroke-dasharray="" stroke-dashoffset="1" fill="#76C4D5" fill-opacity="1"/></svg>