<svg version="1.1" viewBox="0 0 96 96" xmlns="http://www.w3.org/2000/svg" xmlns:xlink="http://www.w3.org/1999/xlink" id="Icons" overflow="hidden"><style>
.MsftOfcThm_Accent1_Stroke {
 stroke:#4472C4; 
}
</style>
<g><path d=" M 77 30 C 76.2 30 75.5 30.1 74.7 30.3 C 74.9 29.6 75 28.8 75 28 C 75 22.5 70.5 18 65 18 C 62.7 18 60.5 18.8 58.8 20.1 C 58 15.5 53.9 12 49 12 C 44.4 12 40.5 15.2 39.3 19.5 C 37.5 16.8 34.5 15 31 15 C 25.5 15 21 19.5 21 25 C 21 25.8 21.1 26.5 21.3 27.3 C 20.5 27.1 19.8 27 19 27 C 13.5 27 9 31.5 9 37 C 9 42.5 13.5 47 19 47 C 19 47 19 47 19.1 47 C 19.6 52.1 23.9 56 29 56 C 31.3 56 33.4 55.2 35.1 53.9 C 35.1 54.2 35 54.6 35 55 C 35 60.5 39.5 65 45 65 C 50.2 65 54.5 61 55 55.9 C 56.8 58.4 59.7 60 63 60 C 68.5 60 73 55.5 73 50 C 73 49.7 73 49.4 73 49.1 C 74.2 49.6 75.6 50 77 50 C 82.5 50 87 45.5 87 40 C 87 34.5 82.5 30 77 30 Z" class="MsftOfcThm_Accent1_Stroke" stroke="#4472C4" stroke-width="1" stroke-linecap="butt" stroke-dasharray="" stroke-dashoffset="1" stroke-opacity="1" fill="#76C4D5" fill-opacity="1"/><circle cx="29" cy="69" r="6" class="MsftOfcThm_Accent1_Stroke" stroke="#4472C4" stroke-width="1" stroke-linecap="butt" stroke-dasharray="" stroke-dashoffset="1" stroke-opacity="1" fill="#76C4D5" fill-opacity="1"/><circle cx="17" cy="79.5" r="4.5" class="MsftOfcThm_Accent1_Stroke" stroke="#4472C4" stroke-width="1" stroke-linecap="butt" stroke-dasharray="" stroke-dashoffset="1" stroke-opacity="1" fill="#76C4D5" fill-opacity="1"/></g></svg>